Coordinates
version=1
nRows=17
nColumns=36
inDegrees=yes

Units are S.I. units (second, meters, Newtons, ...)
If the header above contains a line with 'inDegrees', this indicates whether rotational values are in degrees (yes) or radians (no).

endheader
time	pelvis_tilt	pelvis_list	pelvis_rotation	pelvis_tx	pelvis_ty	pelvis_tz	hip_flexion_r	hip_adduction_r	hip_rotation_r	knee_angle_r	knee_angle_r_beta	ankle_angle_r	subtalar_angle_r	mtp_angle_r	hip_flexion_l	hip_adduction_l	hip_rotation_l	knee_angle_l	knee_angle_l_beta	ankle_angle_l	subtalar_angle_l	mtp_angle_l	lumbar_extension	lumbar_bending	lumbar_rotation	arm_flex_r	arm_add_r	arm_rot_r	elbow_flex_r	pro_sup_r	arm_flex_l	arm_add_l	arm_rot_l	elbow_flex_l	pro_sup_l
      6.85000000	     -4.04984488	     -0.34587727	     -0.28828278	     -0.17483675	      0.96187607	     -0.59956593	      8.96407884	     -2.47671786	     -2.82750877	      7.70574918	      0.13449069	      2.55613708	     -0.81533486	     -7.49999987	      6.73375046	     -2.05169921	     -6.15315525	      5.69804893	      0.09944971	      1.92624942	      0.73345278	     -7.49999987	    -10.52689174	     -1.34054387	     -1.19569197	    -13.53067926	    -16.32182312	     11.82335138	    116.65427379	    105.28204529	    -14.21586677	    -11.45662459	      6.88131294	    100.71485749	     94.76736151
      6.86000000	     -4.18382586	     -0.39127920	     -0.22284589	     -0.17704779	      0.96155355	     -0.59983675	      9.44356550	     -2.44008947	     -2.73302220	      8.08769545	      0.14115691	      2.55765877	     -1.08504238	     -7.49999987	      7.20593849	     -2.08869886	     -5.96188243	      6.02743279	      0.10519855	      1.97091199	      0.49965909	     -7.49999987	    -10.75187612	     -1.31892479	     -1.25870544	    -13.28066444	    -16.31761119	     11.79161961	    116.85389659	    104.57483270	    -13.93888559	    -11.47180976	      7.02909601	    101.04937908	     94.04065799
      6.87000000	     -4.33112739	     -0.41880680	     -0.22293769	     -0.17936468	      0.96120773	     -0.60002419	      9.99254226	     -2.42299027	     -2.56980016	      8.52964486	      0.14887039	      2.53767186	     -1.32071741	     -7.49999987	      7.69930896	     -2.10950927	     -5.80084359	      6.37173854	      0.11120782	      2.00043187	      0.25800368	     -7.49999987	    -11.02119431	     -1.32636755	     -1.28179002	    -13.00820619	    -16.28977247	     11.79007430	    117.13653523	    103.65155989	    -13.67330048	    -11.45407036	      7.13798157	    101.47041962	     93.38142469
      6.88000000	     -4.54064191	     -0.39858577	     -0.29169420	     -0.18187083	      0.96076079	     -0.59996106	     10.67498251	     -2.42953534	     -2.27393919	      9.05050856	      0.15796117	      2.52197041	     -1.56072915	     -7.49999987	      8.26894669	     -2.09581214	     -5.63860955	      6.72942030	      0.11745054	      1.99280990	     -0.01618745	     -7.49999987	    -11.17182058	     -1.39367532	     -1.23183169	    -12.69749404	    -16.28929271	     11.83015198	    117.39913507	    102.45492226	    -13.33951881	    -11.46419048	      7.23055954	    101.87011129	     92.33513960
      6.89000000	     -4.52982357	     -0.36903998	     -0.36737428	     -0.18471485	      0.96064130	     -0.59977537	     11.10310847	     -2.37705351	     -1.65532722	      9.48540477	      0.16555154	      1.86374034	     -3.12569932	     -7.49999987	      8.52072845	     -2.00318266	     -4.97643164	      6.87039299	      0.11991098	      1.18986331	     -1.83857749	     -7.49999987	    -11.55496579	     -1.46634466	     -1.22737787	    -12.10322138	    -16.15266846	     11.58919265	    117.05444615	    106.03476167	    -12.86689606	    -11.47923941	      7.11095817	    101.63461931	     95.78867767
      6.90000000	     -4.78948600	     -0.31538034	     -0.48017357	     -0.18770337	      0.96000162	     -0.59961153	     11.96020024	     -2.40469707	     -1.29455480	     10.17570019	      0.17759947	      1.98526297	     -3.18742109	     -7.49999987	      9.25773955	     -1.97980362	     -4.86868003	      7.40368173	      0.12921862	      1.33865184	     -1.87330875	     -7.49999987	    -11.69393821	     -1.55776417	     -1.14602292	    -11.62361992	    -16.13149472	     11.67651194	    117.28745250	    104.55709504	    -12.42980361	    -11.52538308	      7.22855017	    102.06438044	     94.48555975
      6.91000000	     -4.89724168	     -0.24375148	     -0.55225830	     -0.19090302	      0.95956605	     -0.59946307	     12.64013605	     -2.41346095	     -0.82376710	     10.80436200	      0.18857169	      1.61052403	     -4.35229878	     -7.49999987	      9.89503247	     -1.91639871	     -4.65303756	      8.00232676	      0.13966695	      1.02877748	     -2.85502148	     -7.49999987	    -12.18266882	     -1.70396218	     -1.22843937	    -10.92296067	    -16.04883812	     11.75728215	    117.42948946	    103.62062534	    -11.98819652	    -11.57817943	      7.15412880	    102.63075856	     93.64356068
      6.92000000	     -5.28340156	     -0.19336353	     -0.62679994	     -0.19429614	      0.95863525	     -0.59933570	     13.73923760	     -2.43372507	     -0.50371597	     11.65368125	      0.20339511	      1.74045949	     -4.47280719	     -7.49999987	     10.94336179	     -1.91018598	     -4.51168470	      8.81146468	      0.15378907	      1.22258136	     -2.99380662	     -7.49999987	    -12.44298534	     -1.79977288	     -1.20016992	    -10.38594312	    -16.02868586	     11.83652236	    117.84786899	    102.27602600	    -11.47845683	    -11.62869716	      7.25984028	    103.27284861	     92.57964251
      6.93000000	     -5.72720824	     -0.15274764	     -0.65773723	     -0.19810587	      0.95757703	     -0.59911046	     14.90840057	     -2.36332758	      0.12252243	     12.44617055	      0.21722666	      0.98777506	     -6.30755574	     -7.49999987	     12.03522829	     -1.81918206	     -3.72796320	      9.48835568	      0.16560305	      0.47381872	     -5.10476217	     -7.49999987	    -12.66287096	     -1.91480179	     -1.31873543	     -9.62666156	    -15.94172031	     11.90014209	    117.88487534	    103.06806285	    -10.92675271	    -11.70877113	      7.22354021	    103.74331754	     93.16476973
      6.94000000	     -6.11703168	     -0.11318312	     -0.69576954	     -0.20200974	      0.95640511	     -0.59890361	     16.10725878	     -2.36530869	      0.40004161	     13.43036608	      0.23440411	      1.24206910	     -6.28159617	     -7.49999987	     13.21432568	     -1.81236224	     -3.51641611	     10.46713306	      0.18268594	      0.76418137	     -5.19894701	     -7.49999987	    -12.96076649	     -2.01959168	     -1.30035732	     -8.93343895	    -15.86060439	     11.97431325	    118.23037953	    101.79725339	    -10.21716397	    -11.80803035	      7.38191158	    104.36418451	     92.33630428
      6.95000000	     -6.74595020	     -0.07184611	     -0.68909172	     -0.20637168	      0.95472929	     -0.59868035	     17.60797555	     -2.29594127	      0.96296600	     14.42511454	      0.25176574	      0.69362135	     -7.98250258	     -7.49999987	     14.67681445	     -1.69130438	     -2.52900079	     11.40633322	      0.19907807	      0.08704954	     -7.52772619	     -7.49999987	    -13.02540993	     -2.12921082	     -1.34849828	     -8.18552240	    -15.71441474	     11.92382273	    118.36075956	    102.03931749	     -9.46965304	    -11.94995606	      7.45386577	    104.83730234	     92.48447920
      6.96000000	     -7.16227762	     -0.04897102	     -0.64556640	     -0.21089251	      0.95306065	     -0.59857388	     18.97044820	     -2.29411009	      1.15148987	     15.60310225	      0.27232551	      0.81440881	     -8.35055151	     -7.49999987	     16.09573514	     -1.67325332	     -2.13992197	     12.70305820	      0.22171019	      0.23105963	     -8.16838931	     -7.49999987	    -13.43803322	     -2.19220805	     -1.41168740	     -7.33282809	    -15.67361798	     11.93180513	    118.70344524	    102.36055385	     -8.60349832	    -12.13122552	      7.57988419	    105.51998951	     92.78123260
      6.97000000	     -7.79194954	     -0.01839241	     -0.58479738	     -0.21565326	      0.95085082	     -0.59857429	     20.62932520	     -2.30020224	      1.40233805	     16.85567371	      0.29418700	      0.90172364	     -8.93183053	     -7.49999987	     17.85422800	     -1.61273141	     -1.59815327	     14.17214802	      0.24735064	      0.36861035	     -9.07483548	     -7.49999987	    -13.61437008	     -2.22060333	     -1.51681082	     -6.45008532	    -15.66249400	     11.96197360	    118.99769871	    102.68273090	     -7.73304135	    -12.27426720	      7.71481141	    106.18973108	     93.04159454
      6.98000000	     -8.48378464	     -0.01920369	     -0.49904881	     -0.22067426	      0.94824905	     -0.59854739	     22.40562113	     -2.25685977	      1.74724042	     18.19975092	      0.31764558	      0.89112143	     -9.63873051	     -7.49999987	     19.75884321	     -1.56413321	     -0.91536236	     15.75438054	      0.27496581	      0.39372190	    -10.14521088	     -7.49999987	    -13.75198947	     -2.25791884	     -1.65627694	     -5.52362035	    -15.70451738	     12.00770737	    119.24896307	    103.08159329	     -6.79903520	    -12.40305829	      7.80753353	    106.86083994	     93.28880937
      6.99000000	     -9.08671132	     -0.05424628	     -0.41368450	     -0.22584170	      0.94531587	     -0.59847019	     24.14784753	     -2.18782691	      1.94360708	     19.63688594	      0.34272831	      0.98798115	    -10.39035272	     -7.49999987	     21.66048412	     -1.56825987	     -0.43190288	     17.48732944	      0.30521148	      0.56421864	    -11.14946890	     -7.49999987	    -14.07118415	     -2.28210513	     -1.78765933	     -4.51502304	    -15.80805054	     12.09400103	    119.69832054	    103.40838566	     -5.79482005	    -12.59596610	      7.99039003	    107.75228244	     93.50189535
      7.00000000	     -9.79692592	     -0.12684902	     -0.39044936	     -0.23121849	      0.94190925	     -0.59840346	     26.04788828	     -2.04905663	      2.28179802	     21.11002321	      0.36843941	      0.98938434	    -11.11986154	     -7.49999987	     23.70293674	     -1.59090313	      0.13650151	     19.26935206	      0.33631364	      0.69958162	    -12.16638895	     -7.49999987	    -14.28761138	     -2.18297542	     -1.83852849	     -3.40640167	    -15.89646413	     12.17381931	    119.99226249	    103.85563566	     -4.76216781	    -12.74222108	      7.98839727	    108.55060987	     93.73715455
      7.01000000	    -10.41370188	     -0.20491393	     -0.33396641	     -0.23670366	      0.93813371	     -0.59830240	     27.90795430	     -1.93243738	      2.46767867	     22.71167687	      0.39639354	      1.19084064	    -11.78953083	     -7.49999987	     25.73327753	     -1.63828018	      0.54719585	     21.19841966	      0.36998222	      1.04544127	    -12.99386580	     -7.49999987	    -14.68852596	     -2.12604802	     -1.89552113	     -2.29699382	    -16.06579574	     12.25505215	    120.50305345	    104.14433531	     -3.61291428	    -12.98799849	      8.07779360	    109.58988700	     93.96160409
